<?xml version="1.0" encoding="UTF-8"?>
<svg width="2000px" height="2000px" viewBox="0 0 2000 2000" version="1.1" xmlns="http://www.w3.org/2000/svg" xmlns:xlink="http://www.w3.org/1999/xlink">
    <!-- Generator: Sketch 64 (93537) - https://sketch.com -->
    <title>biwabit-2020-logo-2000px</title>
    <desc>Created with Sketch.</desc>
    <defs>
        <linearGradient x1="5.89629434%" y1="4.94094936%" x2="106.37437%" y2="106.119222%" id="linearGradient-1">
            <stop stop-color="#3023AE" offset="0%"></stop>
            <stop stop-color="#C86DD7" offset="100%"></stop>
            <stop stop-color="#E544E7" offset="100%"></stop>
            <stop stop-color="#C628BB" offset="100%"></stop>
            <stop stop-color="#FF40FF" stop-opacity="0.862789554" offset="100%"></stop>
        </linearGradient>
    </defs>
    <g id="Page-1" stroke="none" stroke-width="1" fill="none" fill-rule="evenodd">
        <g id="logo">
            <rect id="background" fill="url(#linearGradient-1)" x="-0.00399801299" y="0" width="1999.00649" height="2000"></rect>
            <path d="M992.97087,452 L1031.09986,500.951 L1108.37099,500.951979 L1108.37103,870.730806 C1173.59871,796.803253 1268.93196,750.192239 1375.12456,750.192239 C1571.74404,750.192239 1731.13563,909.983549 1731.13563,1107.09612 C1731.13563,1302.23756 1574.91593,1460.80044 1381.01185,1463.95219 L1375.12456,1464 L1375.12456,1464 C1268.93196,1464 1173.59872,1417.38899 1108.37104,1343.46144 L1108.37099,1464 L1019.11349,1464 L1019.11344,1343.46144 C953.885758,1417.38899 858.552516,1464 752.359921,1464 C555.740438,1464 396.348854,1304.20869 396.348854,1107.09612 C396.348854,1077.15214 400.027228,1048.06944 406.955696,1020.27738 L316.609308,1091.08526 L263.864859,1023.37038 L992.97087,452 Z M752.359921,839.418209 C604.895309,839.418209 485.351621,959.261692 485.351621,1107.09612 C485.351621,1254.93055 604.895309,1374.77403 752.359921,1374.77403 C895.942172,1374.77403 1013.05432,1261.15782 1019.12131,1118.71253 L1019.12133,1095.48007 C1013.05452,953.034616 895.942295,839.418209 752.359921,839.418209 Z M1375.12456,839.418209 C1231.54218,839.418209 1114.42996,953.034616 1108.36315,1095.48007 L1108.36317,1118.71253 C1114.43016,1261.15782 1231.54231,1374.77403 1375.12456,1374.77403 C1522.58917,1374.77403 1642.13286,1254.93055 1642.13286,1107.09612 C1642.13286,959.261692 1522.58917,839.418209 1375.12456,839.418209 Z M1019.11286,540.561 L751.601859,750.198 L752.359921,750.192239 C858.55252,750.192239 953.885766,796.803253 1019.11345,870.730806 L1019.11286,540.561 Z" id="Combined-Shape" fill="#FFFFFF"></path>
            <g id="line" transform="translate(267.862872, 452.000000)"></g>
        </g>
    </g>
</svg>