<?xml version="1.0" encoding="UTF-8"?>
<svg width="3900px" height="1000px" viewBox="0 0 3900 1000" version="1.1" xmlns="http://www.w3.org/2000/svg" xmlns:xlink="http://www.w3.org/1999/xlink">
    <title>BIWABITS-LOGO-20-HD-Light</title>
    <defs>
        <linearGradient x1="5.89629434%" y1="4.94094936%" x2="106.37437%" y2="106.119222%" id="linearGradient-1">
            <stop stop-color="#3023AE" offset="0%"></stop>
            <stop stop-color="#C86DD7" offset="100%"></stop>
            <stop stop-color="#E544E7" offset="100%"></stop>
            <stop stop-color="#C628BB" offset="100%"></stop>
            <stop stop-color="#FF40FF" stop-opacity="0.862789554" offset="100%"></stop>
        </linearGradient>
    </defs>
    <g id="Page-1" stroke="none" stroke-width="1" fill="none" fill-rule="evenodd">
        <polygon id="back" points="0.59618173 0 0.59618173 1000 3900.59618 1000 3900.59618 0"></polygon>
        <g id="biwabit-logo">
            <g id="logo-final" transform="translate(0.331078, 0.000000)">
                <g id="logo" transform="translate(0.265104, 0.000000)">
                    <rect id="background" fill="url(#linearGradient-1)" x="-0.00199900649" y="0" width="999.503247" height="1000"></rect>
                    <path d="M496.485435,226 L515.54943,250.475 L554.185494,250.475989 L554.186395,435.364405 C586.800215,398.401207 634.466458,375.096119 687.562279,375.096119 C785.872021,375.096119 865.567813,454.991775 865.567813,553.54806 C865.567813,651.118782 787.457967,730.400221 690.505926,731.976093 L687.562279,732 L687.562279,732 C634.466458,732 586.800215,708.694912 554.186395,671.731714 L554.185494,732 L509.556746,732 L509.557598,671.729728 C476.943733,708.694077 429.276733,732 376.179961,732 C277.870219,732 198.174427,652.104345 198.174427,553.54806 C198.174427,538.576068 200.013614,524.034719 203.477848,510.13869 L158.304654,545.54263 L131.93243,511.685188 L496.485435,226 Z M376.179961,419.709105 C302.447655,419.709105 242.675811,479.630846 242.675811,553.54806 C242.675811,627.465274 302.447655,687.387015 376.179961,687.387015 C447.973604,687.387015 506.531266,630.574923 509.560976,559.348772 L509.560976,547.747348 C506.531266,476.521196 447.973604,419.709105 376.179961,419.709105 Z M687.562279,419.709105 C615.773672,419.709105 557.21919,476.513225 554.181902,547.732358 L554.181902,559.363761 C557.21919,630.582894 615.773672,687.387015 687.562279,687.387015 C761.294585,687.387015 821.066429,627.465274 821.066429,553.54806 C821.066429,480.370018 762.484045,420.908939 689.770014,419.727035 L687.562279,419.709105 L687.562279,419.709105 Z M509.55643,270.28 L375.80043,375.099 L376.179961,375.096119 C429.276733,375.096119 476.943733,398.402042 509.557598,435.366392 L509.55643,270.28 Z" id="Combined-Shape" fill="#FFFFFF"></path>
                    <g id="line" transform="translate(133.931436, 226.000000)"></g>
                </g>
                <g id="text-logo" transform="translate(1141.668922, 256.000000)" fill="#FFFFFF">
                    <g id="line">
                        <path d="M2424.74116,126.124719 C2459.58335,126.124719 2478.04979,131.09985 2501.10352,141.006883 C2511.92963,145.659256 2536.89527,163.584541 2537.3935,163.942582 L2537.40106,163.948022 L2505.67002,202.021449 C2505.67002,202.021449 2495.40704,180.845338 2470.23065,170.289788 C2438.85687,157.135899 2407.64768,163.0432 2402.5033,164.162172 C2360.53631,173.290564 2342.98126,195.113716 2342.98126,225.824577 C2342.98126,256.535437 2385.59949,277.661948 2427.537,287.419482 C2486.24951,300.661849 2551.86505,305.604195 2555.55385,382.740029 C2558.31413,440.459843 2513.50889,487.371472 2424.74116,487.371472 C2368.12552,487.371472 2325.51683,474.166985 2291.26787,439.318651 C2291.26787,434.370141 2327.90905,408.349892 2327.90905,408.349892 L2327.92173,408.369379 C2328.27102,408.905266 2335.77813,420.357061 2342.98126,425.813471 C2345.43319,427.670822 2357.2109,435.853856 2372.08065,440.587291 C2387.74596,445.573976 2407.1902,446.385143 2427.537,446.385143 C2444.21355,446.385143 2464.8604,443.332667 2478.49258,435.249179 C2501.5789,421.55966 2516.45647,399.269615 2511.9135,376.899947 C2505.36746,344.667162 2465.23618,334.4588 2417.75158,324.035595 C2416.7163,323.808345 2300.98168,297.002052 2300.98168,225.824577 C2300.98168,172.158141 2346.84997,126.124719 2424.74116,126.124719 Z M1558.28081,4.32240759 L1558.2789,194.503966 C1590.10122,155.487745 1637.93052,130.670858 1691.41243,130.670858 C1787.22147,130.670858 1864.89004,210.31365 1864.89004,308.558012 C1864.89004,406.802374 1787.22147,486.445165 1691.41243,486.445165 C1637.93052,486.445165 1590.10122,461.628278 1558.2789,422.612058 L1558.28081,484.322431 L1514.78728,484.322431 L1514.78728,4.32240759 L1558.28081,4.32240759 Z M554.018296,128.566721 L659.783743,395.73087 L770.052337,128.566721 L773.746484,128.566721 L883.254032,395.73087 L993.27331,128.566721 L1035.34169,128.566721 L891.075683,485.368333 L877.317431,485.368333 L771.512842,231.830871 L666.990848,485.368333 L653.64644,485.368333 L510.447357,128.566721 L554.018296,128.566721 Z M2156.98071,0.214329497 L2156.98071,127.664948 L2224.75842,127.664948 L2224.75842,168.755734 L2156.98071,168.755734 L2156.98071,444.919065 L2225.24263,444.919065 L2225.24263,485.368333 L2140.51463,485.368333 C2131.24818,480.936509 2124.49363,475.274584 2120.25098,468.382558 C2116.00834,461.490531 2113.75374,453.669367 2113.48718,444.919065 L2113.48718,168.755734 L2076.64473,168.755734 L2054.84485,127.664948 L2113.48718,127.664948 L2113.48718,0.214329497 L2156.98071,0.214329497 Z M43.4935277,4.32240759 L43.4914983,194.543411 C75.2962457,154.294844 123.891019,128.566721 178.34596,128.566721 C274.154998,128.566721 351.82357,208.209512 351.82357,306.453874 C351.82357,404.698236 274.154998,484.341028 178.34596,484.341028 C123.89064,484.341028 75.295569,458.612546 43.490834,418.363496 L43.4935277,484.322431 L2.88571252e-12,484.322431 L2.88571252e-12,4.32240759 L43.4935277,4.32240759 Z M1417.8289,128.566721 L1417.8289,484.322431 L1374.33537,484.322431 L1374.33506,420.092157 C1342.51395,459.347753 1294.53511,484.341028 1240.86347,484.341028 C1145.05444,484.341028 1067.38587,404.698236 1067.38587,306.453874 C1067.38587,208.209512 1145.05444,128.566721 1240.86347,128.566721 C1294.5351,128.566721 1342.51394,153.559987 1374.33504,192.815572 L1374.33537,128.566721 L1417.8289,128.566721 Z M467.283446,128.566721 L467.283446,484.322431 L423.789918,484.322431 L423.789918,128.566721 L467.283446,128.566721 Z M1982.14894,128.566721 L1982.07073,484.322431 L1938.5772,484.322431 L1938.5772,128.566721 L1982.14894,128.566721 Z M1691.41243,175.142647 C1619.55565,175.142647 1561.30422,234.87474 1561.30422,308.558012 C1561.30422,382.241283 1619.55565,441.973377 1691.41243,441.973377 C1763.26921,441.973377 1821.52063,382.241283 1821.52063,308.558012 C1821.52063,234.87474 1763.26921,175.142647 1691.41243,175.142647 Z M178.34596,173.038509 C106.489181,173.038509 48.237753,232.770603 48.237753,306.453874 C48.237753,380.137146 106.489181,439.869239 178.34596,439.869239 C250.202739,439.869239 308.454167,380.137146 308.454167,306.453874 C308.454167,232.770603 250.202739,173.038509 178.34596,173.038509 Z M1240.86347,173.038509 C1169.0067,173.038509 1110.75527,232.770603 1110.75527,306.453874 C1110.75527,380.137146 1169.0067,439.869239 1240.86347,439.869239 C1312.72025,439.869239 1370.97168,380.137146 1370.97168,306.453874 C1370.97168,232.770603 1312.72025,173.038509 1240.86347,173.038509 Z M446.914583,0.815511658 C467.079952,0.815511658 483.427213,17.637913 483.427213,38.3893967 C483.427213,59.1408804 467.079952,75.9632817 446.914583,75.9632817 C426.749215,75.9632817 410.401954,59.1408804 410.401954,38.3893967 C410.401954,17.637913 426.749215,0.815511658 446.914583,0.815511658 Z M1963.16237,0.0640339568 C1983.32774,0.0640339568 1999.675,16.8864353 1999.675,37.637919 C1999.675,58.3894027 1983.32774,75.211804 1963.16237,75.211804 C1942.997,75.211804 1926.64974,58.3894027 1926.64974,37.637919 C1926.64974,16.8864353 1942.997,0.0640339568 1963.16237,0.0640339568 Z" id="Combined-Shape"></path>
                    </g>
                </g>
            </g>
        </g>
    </g>
</svg>